<?xml version="1.0" encoding="iso-8859-1"?>
<!-- Uploaded to: SVG Repo, www.svgrepo.com, Generator: SVG Repo Mixer Tools -->
<svg version="1.1" id="Layer_1" xmlns="http://www.w3.org/2000/svg" xmlns:xlink="http://www.w3.org/1999/xlink" 
	 viewBox="0 0 512.001 512.001" xml:space="preserve">
<circle style="fill:#999999;" cx="256" cy="256" r="256"/>
<polygon style="fill:#FFFFFF;" points="350.44,437.337 120.001,437.337 120.001,74.664 392,74.664 392,395.776 "/>
<g>
	<polygon style="fill:#E21B1B;" points="204.576,273.336 178.904,304.529 168.12,294.032 161,301.752 179.736,319.976 
		212.472,280.192 	"/>
	<polygon style="fill:#E21B1B;" points="204.576,334.024 178.904,365.216 168.12,354.729 161,362.44 179.736,380.664 
		212.472,340.888 	"/>
</g>
<g>
	<rect x="232.629" y="282.669" style="fill:#CCCCCC;" width="118.362" height="8"/>
	<rect x="232.629" y="302.554" style="fill:#CCCCCC;" width="118.362" height="8"/>
	<rect x="232.629" y="343.36" style="fill:#CCCCCC;" width="118.362" height="8"/>
	<rect x="232.629" y="363.244" style="fill:#CCCCCC;" width="118.362" height="8"/>
	<polygon style="fill:#CCCCCC;" points="350.44,437.337 350.44,395.776 392,395.776 	"/>
</g>
<rect x="197.203" y="185.179" style="fill:#E21B1B;" width="21.6" height="52.003"/>
<rect x="165.204" y="207.584" width="21.6" height="31.202"/>
<rect x="229.202" y="157.185" width="21.6" height="80.804"/>
<rect x="261.201" y="105.182" style="fill:#E21B1B;" width="21.6" height="133.604"/>
<rect x="293.2" y="131.582" width="21.6" height="106.397"/>
<rect x="325.198" y="174.788" style="fill:#E21B1B;" width="21.6" height="63.998"/>
</svg>